<svg xmlns="http://www.w3.org/2000/svg" xmlns:xlink="http://www.w3.org/1999/xlink" width="700" zoomAndPan="magnify" viewBox="0 0 525 112.499997" height="150" preserveAspectRatio="xMidYMid meet" version="1.0"><defs><g/></defs><g fill="#ff00ff" fill-opacity="1"><g transform="translate(11.511909, 88.901736)"><g><path d="M 18.859375 0.703125 C 13.421875 0.703125 9.367188 -1.210938 6.703125 -5.046875 C 4.046875 -8.878906 2.71875 -14.679688 2.71875 -22.453125 L 2.71875 -54.921875 C 2.71875 -61.878906 4.265625 -67.140625 7.359375 -70.703125 C 10.460938 -74.273438 15.085938 -76.0625 21.234375 -76.0625 C 26.203125 -76.0625 30.0625 -75.066406 32.8125 -73.078125 C 35.5625 -71.085938 37.460938 -68.191406 38.515625 -64.390625 C 39.566406 -60.585938 40.09375 -55.707031 40.09375 -49.75 L 25.359375 -49.75 L 25.359375 -56.5 C 25.359375 -58.3125 25.109375 -59.710938 24.609375 -60.703125 C 24.109375 -61.703125 23.21875 -62.203125 21.9375 -62.203125 C 19.070312 -62.203125 17.640625 -60.332031 17.640625 -56.59375 L 17.640625 -20.09375 C 17.640625 -17.8125 17.929688 -16.082031 18.515625 -14.90625 C 19.097656 -13.738281 20.117188 -13.15625 21.578125 -13.15625 C 23.046875 -13.15625 24.070312 -13.738281 24.65625 -14.90625 C 25.238281 -16.082031 25.53125 -17.8125 25.53125 -20.09375 L 25.53125 -30.875 L 21.5 -30.875 L 21.5 -43.875 L 39.921875 -43.875 L 39.921875 0 L 33.859375 0 L 31.328125 -6.3125 C 28.628906 -1.632812 24.472656 0.703125 18.859375 0.703125 Z M 18.859375 0.703125 "/></g></g></g><g fill="#ff00ff" fill-opacity="1"><g transform="translate(54.058864, 88.901736)"><g><path d="M 15.4375 0.703125 C 10.644531 0.703125 7.351562 -0.726562 5.5625 -3.59375 C 3.78125 -6.457031 2.890625 -10.726562 2.890625 -16.40625 L 2.890625 -64.21875 L 18.34375 -64.21875 L 18.34375 -19.484375 C 18.34375 -19.066406 18.34375 -17.96875 18.34375 -16.1875 C 18.34375 -14.40625 18.617188 -13.144531 19.171875 -12.40625 C 19.722656 -11.675781 20.585938 -11.3125 21.765625 -11.3125 C 23.335938 -11.3125 24.328125 -11.96875 24.734375 -13.28125 C 25.148438 -14.601562 25.359375 -16.492188 25.359375 -18.953125 L 25.359375 -19.484375 L 25.4375 -64.21875 L 40.703125 -64.21875 L 40.703125 0 L 25.359375 0 L 25.359375 -6.84375 C 24.304688 -4.15625 23.078125 -2.222656 21.671875 -1.046875 C 20.265625 0.117188 18.1875 0.703125 15.4375 0.703125 Z M 15.4375 0.703125 "/></g></g></g><g fill="#ff00ff" fill-opacity="1"><g transform="translate(97.833988, 88.901736)"><g><path d="M 20.703125 0.703125 C 8.015625 0.703125 1.671875 -5.726562 1.671875 -18.59375 L 1.75 -23.6875 L 17.109375 -23.6875 L 17.203125 -16.140625 C 17.203125 -14.617188 17.492188 -13.460938 18.078125 -12.671875 C 18.660156 -11.890625 19.625 -11.5 20.96875 -11.5 C 23.019531 -11.5 24.046875 -13.164062 24.046875 -16.5 C 24.046875 -18.945312 23.5625 -20.875 22.59375 -22.28125 C 21.625 -23.6875 20.085938 -25.179688 17.984375 -26.765625 L 9.828125 -33.078125 C 7.015625 -35.242188 4.992188 -37.476562 3.765625 -39.78125 C 2.546875 -42.09375 1.9375 -45.351562 1.9375 -49.5625 C 1.9375 -52.84375 2.796875 -55.640625 4.515625 -57.953125 C 6.242188 -60.265625 8.539062 -62.003906 11.40625 -63.171875 C 14.269531 -64.335938 17.457031 -64.921875 20.96875 -64.921875 C 33.425781 -64.921875 39.65625 -58.722656 39.65625 -46.328125 L 39.65625 -45.09375 L 23.78125 -45.09375 L 23.78125 -47.546875 C 23.78125 -49.066406 23.53125 -50.367188 23.03125 -51.453125 C 22.53125 -52.535156 21.695312 -53.078125 20.53125 -53.078125 C 19.476562 -53.078125 18.671875 -52.769531 18.109375 -52.15625 C 17.554688 -51.539062 17.28125 -50.707031 17.28125 -49.65625 C 17.28125 -47.3125 18.1875 -45.5 20 -44.21875 L 29.484375 -37.28125 C 32.867188 -34.769531 35.46875 -32.035156 37.28125 -29.078125 C 39.09375 -26.128906 40 -22.398438 40 -17.890625 C 40 -11.929688 38.300781 -7.34375 34.90625 -4.125 C 31.519531 -0.90625 26.785156 0.703125 20.703125 0.703125 Z M 20.703125 0.703125 "/></g></g></g><g fill="#ff00ff" fill-opacity="1"><g transform="translate(139.503704, 88.901736)"><g><path d="M 16.3125 0.703125 C 12.28125 0.703125 9.503906 -0.144531 7.984375 -1.84375 C 6.460938 -3.539062 5.703125 -6.257812 5.703125 -10 L 5.703125 -50.09375 L 1.40625 -50.09375 L 1.40625 -61.765625 L 5.703125 -61.765625 L 5.703125 -75.359375 L 20.625 -75.359375 L 20.625 -61.765625 L 25 -61.765625 L 25 -50.09375 L 20.625 -50.09375 L 20.625 -14.03125 C 20.625 -12.925781 20.707031 -12.109375 20.875 -11.578125 C 21.050781 -11.054688 21.519531 -10.796875 22.28125 -10.796875 C 22.863281 -10.796875 23.414062 -10.820312 23.9375 -10.875 C 24.46875 -10.9375 24.820312 -10.96875 25 -10.96875 L 25 -0.4375 C 24.125 -0.207031 22.851562 0.0351562 21.1875 0.296875 C 19.519531 0.566406 17.894531 0.703125 16.3125 0.703125 Z M 16.3125 0.703125 "/></g></g></g><g fill="#ff00ff" fill-opacity="1"><g transform="translate(166.260055, 88.901736)"><g><path d="M 14.734375 0.703125 C 9.765625 0.703125 6.359375 -0.945312 4.515625 -4.25 C 2.671875 -7.5625 1.75 -12.285156 1.75 -18.421875 C 1.75 -23.453125 2.40625 -27.3125 3.71875 -30 C 5.039062 -32.695312 6.867188 -34.671875 9.203125 -35.921875 C 11.546875 -37.179688 15.117188 -38.570312 19.921875 -40.09375 L 24.125 -41.5 L 24.125 -48.078125 C 24.125 -49.773438 23.785156 -51.078125 23.109375 -51.984375 C 22.441406 -52.890625 21.640625 -53.34375 20.703125 -53.34375 C 19.890625 -53.34375 19.175781 -52.960938 18.5625 -52.203125 C 17.945312 -51.441406 17.640625 -50.414062 17.640625 -49.125 L 17.640625 -45.265625 L 2.71875 -45.265625 L 2.71875 -47.375 C 2.71875 -53.695312 4.191406 -58.203125 7.140625 -60.890625 C 10.097656 -63.578125 14.910156 -64.921875 21.578125 -64.921875 C 26.898438 -64.921875 31.226562 -63.53125 34.5625 -60.75 C 37.894531 -57.976562 39.5625 -54.046875 39.5625 -48.953125 L 39.5625 0 L 24.296875 0 L 24.296875 -7.640625 C 23.535156 -5.003906 22.320312 -2.953125 20.65625 -1.484375 C 18.988281 -0.0234375 17.015625 0.703125 14.734375 0.703125 Z M 20.796875 -11.234375 C 21.960938 -11.234375 22.796875 -11.710938 23.296875 -12.671875 C 23.796875 -13.640625 24.046875 -14.828125 24.046875 -16.234375 L 24.046875 -34.125 C 21.765625 -33.25 20.082031 -32.140625 19 -30.796875 C 17.914062 -29.453125 17.375 -27.582031 17.375 -25.1875 L 17.375 -16.9375 C 17.375 -13.132812 18.515625 -11.234375 20.796875 -11.234375 Z M 20.796875 -11.234375 "/></g></g></g><g fill="#ff00ff" fill-opacity="1"><g transform="translate(208.631573, 88.901736)"><g><path d="M 11.234375 0 L 0.96875 -64.21875 L 16.3125 -64.21875 L 19.484375 -31.765625 L 20 -21.3125 L 20.625 -31.84375 L 24.125 -64.21875 L 39.484375 -64.21875 L 29.046875 0 Z M 11.234375 0 "/></g></g></g><g fill="#ff00ff" fill-opacity="1"><g transform="translate(249.073123, 88.901736)"><g><path d="M 21.765625 0.703125 C 8.953125 0.703125 2.546875 -5.9375 2.546875 -19.21875 L 2.546875 -45 C 2.546875 -51.082031 4.253906 -55.921875 7.671875 -59.515625 C 11.097656 -63.117188 15.796875 -64.921875 21.765625 -64.921875 C 27.722656 -64.921875 32.410156 -63.117188 35.828125 -59.515625 C 39.253906 -55.921875 40.96875 -51.082031 40.96875 -45 L 40.96875 -19.21875 C 40.96875 -5.9375 34.566406 0.703125 21.765625 0.703125 Z M 21.765625 -11.140625 C 22.984375 -11.140625 23.882812 -11.578125 24.46875 -12.453125 C 25.0625 -13.335938 25.359375 -14.539062 25.359375 -16.0625 L 25.359375 -47.46875 C 25.359375 -51.207031 24.160156 -53.078125 21.765625 -53.078125 C 19.359375 -53.078125 18.15625 -51.207031 18.15625 -47.46875 L 18.15625 -16.0625 C 18.15625 -14.539062 18.445312 -13.335938 19.03125 -12.453125 C 19.625 -11.578125 20.535156 -11.140625 21.765625 -11.140625 Z M 21.765625 -11.140625 "/></g></g></g><g fill="#ff00ff" fill-opacity="1"><g transform="translate(292.672809, 88.901736)"><g/></g></g><g fill="#ff00ff" fill-opacity="1"><g transform="translate(313.200619, 88.901736)"><g><path d="M 1.3125 0 L 8.59375 -75.359375 L 34.125 -75.359375 L 41.328125 0 L 27.015625 0 L 25.96875 -12.1875 L 16.84375 -12.1875 L 15.96875 0 Z M 17.984375 -24.21875 L 24.828125 -24.21875 L 21.5 -62.546875 L 20.796875 -62.546875 Z M 17.984375 -24.21875 "/></g></g></g><g fill="#ff00ff" fill-opacity="1"><g transform="translate(355.747574, 88.901736)"><g><path d="M 15.4375 0.703125 C 10.644531 0.703125 7.351562 -0.726562 5.5625 -3.59375 C 3.78125 -6.457031 2.890625 -10.726562 2.890625 -16.40625 L 2.890625 -64.21875 L 18.34375 -64.21875 L 18.34375 -19.484375 C 18.34375 -19.066406 18.34375 -17.96875 18.34375 -16.1875 C 18.34375 -14.40625 18.617188 -13.144531 19.171875 -12.40625 C 19.722656 -11.675781 20.585938 -11.3125 21.765625 -11.3125 C 23.335938 -11.3125 24.328125 -11.96875 24.734375 -13.28125 C 25.148438 -14.601562 25.359375 -16.492188 25.359375 -18.953125 L 25.359375 -19.484375 L 25.4375 -64.21875 L 40.703125 -64.21875 L 40.703125 0 L 25.359375 0 L 25.359375 -6.84375 C 24.304688 -4.15625 23.078125 -2.222656 21.671875 -1.046875 C 20.265625 0.117188 18.1875 0.703125 15.4375 0.703125 Z M 15.4375 0.703125 "/></g></g></g><g fill="#ff00ff" fill-opacity="1"><g transform="translate(399.522698, 88.901736)"><g><path d="M 20.359375 9.390625 C 15.796875 9.390625 12.210938 9.019531 9.609375 8.28125 C 7.003906 7.550781 4.445312 6.164062 1.9375 4.125 L 7.1875 -4.734375 C 10.9375 -2.515625 14.65625 -1.40625 18.34375 -1.40625 C 20.738281 -1.40625 22.550781 -2.164062 23.78125 -3.6875 C 25.007812 -5.207031 25.625 -7.28125 25.625 -9.90625 L 25.625 -13.421875 C 24.394531 -9.035156 21.144531 -6.84375 15.875 -6.84375 C 11.488281 -6.84375 8.257812 -8.332031 6.1875 -11.3125 C 4.113281 -14.300781 3.078125 -18.28125 3.078125 -23.25 L 3.078125 -47.375 C 3.078125 -53.050781 4.023438 -57.394531 5.921875 -60.40625 C 7.828125 -63.414062 11.144531 -64.921875 15.875 -64.921875 C 18.625 -64.921875 20.800781 -64.234375 22.40625 -62.859375 C 24.019531 -61.484375 25.09375 -59.539062 25.625 -57.03125 L 25.625 -64.21875 L 41.328125 -64.21875 L 41.328125 -10.875 C 41.328125 -3.6875 39.660156 1.484375 36.328125 4.640625 C 32.992188 7.804688 27.671875 9.390625 20.359375 9.390625 Z M 22.015625 -18.421875 C 24.421875 -18.421875 25.625 -20.585938 25.625 -24.921875 L 25.625 -47.8125 C 25.625 -49.101562 25.269531 -50.332031 24.5625 -51.5 C 23.863281 -52.664062 22.988281 -53.25 21.9375 -53.25 C 20.59375 -53.25 19.6875 -52.765625 19.21875 -51.796875 C 18.75 -50.835938 18.515625 -49.507812 18.515625 -47.8125 L 18.515625 -24.921875 C 18.515625 -22.984375 18.75 -21.414062 19.21875 -20.21875 C 19.6875 -19.019531 20.617188 -18.421875 22.015625 -18.421875 Z M 22.015625 -18.421875 "/></g></g></g><g fill="#ff00ff" fill-opacity="1"><g transform="translate(443.736454, 88.901736)"><g><path d="M 21.0625 0.703125 C 14.445312 0.703125 9.707031 -1.109375 6.84375 -4.734375 C 3.976562 -8.359375 2.546875 -13.769531 2.546875 -20.96875 L 2.546875 -46.765625 C 2.546875 -52.671875 4.238281 -57.171875 7.625 -60.265625 C 11.019531 -63.367188 15.757812 -64.921875 21.84375 -64.921875 C 34.1875 -64.921875 40.359375 -58.867188 40.359375 -46.765625 L 40.359375 -42.109375 C 40.359375 -37.429688 40.300781 -33.628906 40.1875 -30.703125 L 17.890625 -30.703125 L 17.890625 -18.25 C 17.890625 -16.03125 18.125 -14.289062 18.59375 -13.03125 C 19.0625 -11.769531 20.054688 -11.140625 21.578125 -11.140625 C 22.753906 -11.140625 23.585938 -11.488281 24.078125 -12.1875 C 24.578125 -12.894531 24.867188 -13.703125 24.953125 -14.609375 C 25.046875 -15.515625 25.09375 -16.84375 25.09375 -18.59375 L 25.09375 -24.828125 L 40.359375 -24.828125 L 40.359375 -21.140625 C 40.359375 -13.648438 38.910156 -8.132812 36.015625 -4.59375 C 33.117188 -1.0625 28.132812 0.703125 21.0625 0.703125 Z M 25.09375 -38.34375 L 25.09375 -46.59375 C 25.09375 -51.207031 23.953125 -53.515625 21.671875 -53.515625 C 19.097656 -53.515625 17.8125 -51.207031 17.8125 -46.59375 L 17.8125 -38.34375 Z M 25.09375 -38.34375 "/></g></g></g><g fill="#ff00ff" fill-opacity="1"><g transform="translate(486.546632, 88.901736)"><g><path d="M 3.078125 -64.21875 L 18.421875 -64.21875 L 18.421875 -57.109375 C 19.179688 -59.628906 20.507812 -61.578125 22.40625 -62.953125 C 24.3125 -64.328125 26.671875 -65.015625 29.484375 -65.015625 L 29.484375 -52.203125 C 27.316406 -52.203125 24.929688 -51.894531 22.328125 -51.28125 C 19.722656 -50.664062 18.421875 -49.945312 18.421875 -49.125 L 18.421875 0 L 3.078125 0 Z M 3.078125 -64.21875 "/></g></g></g><g fill="#00ffff" fill-opacity="1"><g transform="translate(8.221728, 88.901736)"><g><path d="M 18.859375 0.703125 C 13.421875 0.703125 9.367188 -1.210938 6.703125 -5.046875 C 4.046875 -8.878906 2.71875 -14.679688 2.71875 -22.453125 L 2.71875 -54.921875 C 2.71875 -61.878906 4.265625 -67.140625 7.359375 -70.703125 C 10.460938 -74.273438 15.085938 -76.0625 21.234375 -76.0625 C 26.203125 -76.0625 30.0625 -75.066406 32.8125 -73.078125 C 35.5625 -71.085938 37.460938 -68.191406 38.515625 -64.390625 C 39.566406 -60.585938 40.09375 -55.707031 40.09375 -49.75 L 25.359375 -49.75 L 25.359375 -56.5 C 25.359375 -58.3125 25.109375 -59.710938 24.609375 -60.703125 C 24.109375 -61.703125 23.21875 -62.203125 21.9375 -62.203125 C 19.070312 -62.203125 17.640625 -60.332031 17.640625 -56.59375 L 17.640625 -20.09375 C 17.640625 -17.8125 17.929688 -16.082031 18.515625 -14.90625 C 19.097656 -13.738281 20.117188 -13.15625 21.578125 -13.15625 C 23.046875 -13.15625 24.070312 -13.738281 24.65625 -14.90625 C 25.238281 -16.082031 25.53125 -17.8125 25.53125 -20.09375 L 25.53125 -30.875 L 21.5 -30.875 L 21.5 -43.875 L 39.921875 -43.875 L 39.921875 0 L 33.859375 0 L 31.328125 -6.3125 C 28.628906 -1.632812 24.472656 0.703125 18.859375 0.703125 Z M 18.859375 0.703125 "/></g></g></g><g fill="#00ffff" fill-opacity="1"><g transform="translate(50.768683, 88.901736)"><g><path d="M 15.4375 0.703125 C 10.644531 0.703125 7.351562 -0.726562 5.5625 -3.59375 C 3.78125 -6.457031 2.890625 -10.726562 2.890625 -16.40625 L 2.890625 -64.21875 L 18.34375 -64.21875 L 18.34375 -19.484375 C 18.34375 -19.066406 18.34375 -17.96875 18.34375 -16.1875 C 18.34375 -14.40625 18.617188 -13.144531 19.171875 -12.40625 C 19.722656 -11.675781 20.585938 -11.3125 21.765625 -11.3125 C 23.335938 -11.3125 24.328125 -11.96875 24.734375 -13.28125 C 25.148438 -14.601562 25.359375 -16.492188 25.359375 -18.953125 L 25.359375 -19.484375 L 25.4375 -64.21875 L 40.703125 -64.21875 L 40.703125 0 L 25.359375 0 L 25.359375 -6.84375 C 24.304688 -4.15625 23.078125 -2.222656 21.671875 -1.046875 C 20.265625 0.117188 18.1875 0.703125 15.4375 0.703125 Z M 15.4375 0.703125 "/></g></g></g><g fill="#00ffff" fill-opacity="1"><g transform="translate(94.543806, 88.901736)"><g><path d="M 20.703125 0.703125 C 8.015625 0.703125 1.671875 -5.726562 1.671875 -18.59375 L 1.75 -23.6875 L 17.109375 -23.6875 L 17.203125 -16.140625 C 17.203125 -14.617188 17.492188 -13.460938 18.078125 -12.671875 C 18.660156 -11.890625 19.625 -11.5 20.96875 -11.5 C 23.019531 -11.5 24.046875 -13.164062 24.046875 -16.5 C 24.046875 -18.945312 23.5625 -20.875 22.59375 -22.28125 C 21.625 -23.6875 20.085938 -25.179688 17.984375 -26.765625 L 9.828125 -33.078125 C 7.015625 -35.242188 4.992188 -37.476562 3.765625 -39.78125 C 2.546875 -42.09375 1.9375 -45.351562 1.9375 -49.5625 C 1.9375 -52.84375 2.796875 -55.640625 4.515625 -57.953125 C 6.242188 -60.265625 8.539062 -62.003906 11.40625 -63.171875 C 14.269531 -64.335938 17.457031 -64.921875 20.96875 -64.921875 C 33.425781 -64.921875 39.65625 -58.722656 39.65625 -46.328125 L 39.65625 -45.09375 L 23.78125 -45.09375 L 23.78125 -47.546875 C 23.78125 -49.066406 23.53125 -50.367188 23.03125 -51.453125 C 22.53125 -52.535156 21.695312 -53.078125 20.53125 -53.078125 C 19.476562 -53.078125 18.671875 -52.769531 18.109375 -52.15625 C 17.554688 -51.539062 17.28125 -50.707031 17.28125 -49.65625 C 17.28125 -47.3125 18.1875 -45.5 20 -44.21875 L 29.484375 -37.28125 C 32.867188 -34.769531 35.46875 -32.035156 37.28125 -29.078125 C 39.09375 -26.128906 40 -22.398438 40 -17.890625 C 40 -11.929688 38.300781 -7.34375 34.90625 -4.125 C 31.519531 -0.90625 26.785156 0.703125 20.703125 0.703125 Z M 20.703125 0.703125 "/></g></g></g><g fill="#00ffff" fill-opacity="1"><g transform="translate(136.213522, 88.901736)"><g><path d="M 16.3125 0.703125 C 12.28125 0.703125 9.503906 -0.144531 7.984375 -1.84375 C 6.460938 -3.539062 5.703125 -6.257812 5.703125 -10 L 5.703125 -50.09375 L 1.40625 -50.09375 L 1.40625 -61.765625 L 5.703125 -61.765625 L 5.703125 -75.359375 L 20.625 -75.359375 L 20.625 -61.765625 L 25 -61.765625 L 25 -50.09375 L 20.625 -50.09375 L 20.625 -14.03125 C 20.625 -12.925781 20.707031 -12.109375 20.875 -11.578125 C 21.050781 -11.054688 21.519531 -10.796875 22.28125 -10.796875 C 22.863281 -10.796875 23.414062 -10.820312 23.9375 -10.875 C 24.46875 -10.9375 24.820312 -10.96875 25 -10.96875 L 25 -0.4375 C 24.125 -0.207031 22.851562 0.0351562 21.1875 0.296875 C 19.519531 0.566406 17.894531 0.703125 16.3125 0.703125 Z M 16.3125 0.703125 "/></g></g></g><g fill="#00ffff" fill-opacity="1"><g transform="translate(162.969874, 88.901736)"><g><path d="M 14.734375 0.703125 C 9.765625 0.703125 6.359375 -0.945312 4.515625 -4.25 C 2.671875 -7.5625 1.75 -12.285156 1.75 -18.421875 C 1.75 -23.453125 2.40625 -27.3125 3.71875 -30 C 5.039062 -32.695312 6.867188 -34.671875 9.203125 -35.921875 C 11.546875 -37.179688 15.117188 -38.570312 19.921875 -40.09375 L 24.125 -41.5 L 24.125 -48.078125 C 24.125 -49.773438 23.785156 -51.078125 23.109375 -51.984375 C 22.441406 -52.890625 21.640625 -53.34375 20.703125 -53.34375 C 19.890625 -53.34375 19.175781 -52.960938 18.5625 -52.203125 C 17.945312 -51.441406 17.640625 -50.414062 17.640625 -49.125 L 17.640625 -45.265625 L 2.71875 -45.265625 L 2.71875 -47.375 C 2.71875 -53.695312 4.191406 -58.203125 7.140625 -60.890625 C 10.097656 -63.578125 14.910156 -64.921875 21.578125 -64.921875 C 26.898438 -64.921875 31.226562 -63.53125 34.5625 -60.75 C 37.894531 -57.976562 39.5625 -54.046875 39.5625 -48.953125 L 39.5625 0 L 24.296875 0 L 24.296875 -7.640625 C 23.535156 -5.003906 22.320312 -2.953125 20.65625 -1.484375 C 18.988281 -0.0234375 17.015625 0.703125 14.734375 0.703125 Z M 20.796875 -11.234375 C 21.960938 -11.234375 22.796875 -11.710938 23.296875 -12.671875 C 23.796875 -13.640625 24.046875 -14.828125 24.046875 -16.234375 L 24.046875 -34.125 C 21.765625 -33.25 20.082031 -32.140625 19 -30.796875 C 17.914062 -29.453125 17.375 -27.582031 17.375 -25.1875 L 17.375 -16.9375 C 17.375 -13.132812 18.515625 -11.234375 20.796875 -11.234375 Z M 20.796875 -11.234375 "/></g></g></g><g fill="#00ffff" fill-opacity="1"><g transform="translate(205.341392, 88.901736)"><g><path d="M 11.234375 0 L 0.96875 -64.21875 L 16.3125 -64.21875 L 19.484375 -31.765625 L 20 -21.3125 L 20.625 -31.84375 L 24.125 -64.21875 L 39.484375 -64.21875 L 29.046875 0 Z M 11.234375 0 "/></g></g></g><g fill="#00ffff" fill-opacity="1"><g transform="translate(245.782941, 88.901736)"><g><path d="M 21.765625 0.703125 C 8.953125 0.703125 2.546875 -5.9375 2.546875 -19.21875 L 2.546875 -45 C 2.546875 -51.082031 4.253906 -55.921875 7.671875 -59.515625 C 11.097656 -63.117188 15.796875 -64.921875 21.765625 -64.921875 C 27.722656 -64.921875 32.410156 -63.117188 35.828125 -59.515625 C 39.253906 -55.921875 40.96875 -51.082031 40.96875 -45 L 40.96875 -19.21875 C 40.96875 -5.9375 34.566406 0.703125 21.765625 0.703125 Z M 21.765625 -11.140625 C 22.984375 -11.140625 23.882812 -11.578125 24.46875 -12.453125 C 25.0625 -13.335938 25.359375 -14.539062 25.359375 -16.0625 L 25.359375 -47.46875 C 25.359375 -51.207031 24.160156 -53.078125 21.765625 -53.078125 C 19.359375 -53.078125 18.15625 -51.207031 18.15625 -47.46875 L 18.15625 -16.0625 C 18.15625 -14.539062 18.445312 -13.335938 19.03125 -12.453125 C 19.625 -11.578125 20.535156 -11.140625 21.765625 -11.140625 Z M 21.765625 -11.140625 "/></g></g></g><g fill="#00ffff" fill-opacity="1"><g transform="translate(289.382628, 88.901736)"><g/></g></g><g fill="#00ffff" fill-opacity="1"><g transform="translate(309.910437, 88.901736)"><g><path d="M 1.3125 0 L 8.59375 -75.359375 L 34.125 -75.359375 L 41.328125 0 L 27.015625 0 L 25.96875 -12.1875 L 16.84375 -12.1875 L 15.96875 0 Z M 17.984375 -24.21875 L 24.828125 -24.21875 L 21.5 -62.546875 L 20.796875 -62.546875 Z M 17.984375 -24.21875 "/></g></g></g><g fill="#00ffff" fill-opacity="1"><g transform="translate(352.457393, 88.901736)"><g><path d="M 15.4375 0.703125 C 10.644531 0.703125 7.351562 -0.726562 5.5625 -3.59375 C 3.78125 -6.457031 2.890625 -10.726562 2.890625 -16.40625 L 2.890625 -64.21875 L 18.34375 -64.21875 L 18.34375 -19.484375 C 18.34375 -19.066406 18.34375 -17.96875 18.34375 -16.1875 C 18.34375 -14.40625 18.617188 -13.144531 19.171875 -12.40625 C 19.722656 -11.675781 20.585938 -11.3125 21.765625 -11.3125 C 23.335938 -11.3125 24.328125 -11.96875 24.734375 -13.28125 C 25.148438 -14.601562 25.359375 -16.492188 25.359375 -18.953125 L 25.359375 -19.484375 L 25.4375 -64.21875 L 40.703125 -64.21875 L 40.703125 0 L 25.359375 0 L 25.359375 -6.84375 C 24.304688 -4.15625 23.078125 -2.222656 21.671875 -1.046875 C 20.265625 0.117188 18.1875 0.703125 15.4375 0.703125 Z M 15.4375 0.703125 "/></g></g></g><g fill="#00ffff" fill-opacity="1"><g transform="translate(396.232516, 88.901736)"><g><path d="M 20.359375 9.390625 C 15.796875 9.390625 12.210938 9.019531 9.609375 8.28125 C 7.003906 7.550781 4.445312 6.164062 1.9375 4.125 L 7.1875 -4.734375 C 10.9375 -2.515625 14.65625 -1.40625 18.34375 -1.40625 C 20.738281 -1.40625 22.550781 -2.164062 23.78125 -3.6875 C 25.007812 -5.207031 25.625 -7.28125 25.625 -9.90625 L 25.625 -13.421875 C 24.394531 -9.035156 21.144531 -6.84375 15.875 -6.84375 C 11.488281 -6.84375 8.257812 -8.332031 6.1875 -11.3125 C 4.113281 -14.300781 3.078125 -18.28125 3.078125 -23.25 L 3.078125 -47.375 C 3.078125 -53.050781 4.023438 -57.394531 5.921875 -60.40625 C 7.828125 -63.414062 11.144531 -64.921875 15.875 -64.921875 C 18.625 -64.921875 20.800781 -64.234375 22.40625 -62.859375 C 24.019531 -61.484375 25.09375 -59.539062 25.625 -57.03125 L 25.625 -64.21875 L 41.328125 -64.21875 L 41.328125 -10.875 C 41.328125 -3.6875 39.660156 1.484375 36.328125 4.640625 C 32.992188 7.804688 27.671875 9.390625 20.359375 9.390625 Z M 22.015625 -18.421875 C 24.421875 -18.421875 25.625 -20.585938 25.625 -24.921875 L 25.625 -47.8125 C 25.625 -49.101562 25.269531 -50.332031 24.5625 -51.5 C 23.863281 -52.664062 22.988281 -53.25 21.9375 -53.25 C 20.59375 -53.25 19.6875 -52.765625 19.21875 -51.796875 C 18.75 -50.835938 18.515625 -49.507812 18.515625 -47.8125 L 18.515625 -24.921875 C 18.515625 -22.984375 18.75 -21.414062 19.21875 -20.21875 C 19.6875 -19.019531 20.617188 -18.421875 22.015625 -18.421875 Z M 22.015625 -18.421875 "/></g></g></g><g fill="#00ffff" fill-opacity="1"><g transform="translate(440.446272, 88.901736)"><g><path d="M 21.0625 0.703125 C 14.445312 0.703125 9.707031 -1.109375 6.84375 -4.734375 C 3.976562 -8.359375 2.546875 -13.769531 2.546875 -20.96875 L 2.546875 -46.765625 C 2.546875 -52.671875 4.238281 -57.171875 7.625 -60.265625 C 11.019531 -63.367188 15.757812 -64.921875 21.84375 -64.921875 C 34.1875 -64.921875 40.359375 -58.867188 40.359375 -46.765625 L 40.359375 -42.109375 C 40.359375 -37.429688 40.300781 -33.628906 40.1875 -30.703125 L 17.890625 -30.703125 L 17.890625 -18.25 C 17.890625 -16.03125 18.125 -14.289062 18.59375 -13.03125 C 19.0625 -11.769531 20.054688 -11.140625 21.578125 -11.140625 C 22.753906 -11.140625 23.585938 -11.488281 24.078125 -12.1875 C 24.578125 -12.894531 24.867188 -13.703125 24.953125 -14.609375 C 25.046875 -15.515625 25.09375 -16.84375 25.09375 -18.59375 L 25.09375 -24.828125 L 40.359375 -24.828125 L 40.359375 -21.140625 C 40.359375 -13.648438 38.910156 -8.132812 36.015625 -4.59375 C 33.117188 -1.0625 28.132812 0.703125 21.0625 0.703125 Z M 25.09375 -38.34375 L 25.09375 -46.59375 C 25.09375 -51.207031 23.953125 -53.515625 21.671875 -53.515625 C 19.097656 -53.515625 17.8125 -51.207031 17.8125 -46.59375 L 17.8125 -38.34375 Z M 25.09375 -38.34375 "/></g></g></g><g fill="#00ffff" fill-opacity="1"><g transform="translate(483.256451, 88.901736)"><g><path d="M 3.078125 -64.21875 L 18.421875 -64.21875 L 18.421875 -57.109375 C 19.179688 -59.628906 20.507812 -61.578125 22.40625 -62.953125 C 24.3125 -64.328125 26.671875 -65.015625 29.484375 -65.015625 L 29.484375 -52.203125 C 27.316406 -52.203125 24.929688 -51.894531 22.328125 -51.28125 C 19.722656 -50.664062 18.421875 -49.945312 18.421875 -49.125 L 18.421875 0 L 3.078125 0 Z M 3.078125 -64.21875 "/></g></g></g><g fill="#38b6ff" fill-opacity="1"><g transform="translate(9.866818, 88.901736)"><g><path d="M 18.859375 0.703125 C 13.421875 0.703125 9.367188 -1.210938 6.703125 -5.046875 C 4.046875 -8.878906 2.71875 -14.679688 2.71875 -22.453125 L 2.71875 -54.921875 C 2.71875 -61.878906 4.265625 -67.140625 7.359375 -70.703125 C 10.460938 -74.273438 15.085938 -76.0625 21.234375 -76.0625 C 26.203125 -76.0625 30.0625 -75.066406 32.8125 -73.078125 C 35.5625 -71.085938 37.460938 -68.191406 38.515625 -64.390625 C 39.566406 -60.585938 40.09375 -55.707031 40.09375 -49.75 L 25.359375 -49.75 L 25.359375 -56.5 C 25.359375 -58.3125 25.109375 -59.710938 24.609375 -60.703125 C 24.109375 -61.703125 23.21875 -62.203125 21.9375 -62.203125 C 19.070312 -62.203125 17.640625 -60.332031 17.640625 -56.59375 L 17.640625 -20.09375 C 17.640625 -17.8125 17.929688 -16.082031 18.515625 -14.90625 C 19.097656 -13.738281 20.117188 -13.15625 21.578125 -13.15625 C 23.046875 -13.15625 24.070312 -13.738281 24.65625 -14.90625 C 25.238281 -16.082031 25.53125 -17.8125 25.53125 -20.09375 L 25.53125 -30.875 L 21.5 -30.875 L 21.5 -43.875 L 39.921875 -43.875 L 39.921875 0 L 33.859375 0 L 31.328125 -6.3125 C 28.628906 -1.632812 24.472656 0.703125 18.859375 0.703125 Z M 18.859375 0.703125 "/></g></g></g><g fill="#38b6ff" fill-opacity="1"><g transform="translate(52.413774, 88.901736)"><g><path d="M 15.4375 0.703125 C 10.644531 0.703125 7.351562 -0.726562 5.5625 -3.59375 C 3.78125 -6.457031 2.890625 -10.726562 2.890625 -16.40625 L 2.890625 -64.21875 L 18.34375 -64.21875 L 18.34375 -19.484375 C 18.34375 -19.066406 18.34375 -17.96875 18.34375 -16.1875 C 18.34375 -14.40625 18.617188 -13.144531 19.171875 -12.40625 C 19.722656 -11.675781 20.585938 -11.3125 21.765625 -11.3125 C 23.335938 -11.3125 24.328125 -11.96875 24.734375 -13.28125 C 25.148438 -14.601562 25.359375 -16.492188 25.359375 -18.953125 L 25.359375 -19.484375 L 25.4375 -64.21875 L 40.703125 -64.21875 L 40.703125 0 L 25.359375 0 L 25.359375 -6.84375 C 24.304688 -4.15625 23.078125 -2.222656 21.671875 -1.046875 C 20.265625 0.117188 18.1875 0.703125 15.4375 0.703125 Z M 15.4375 0.703125 "/></g></g></g><g fill="#38b6ff" fill-opacity="1"><g transform="translate(96.188897, 88.901736)"><g><path d="M 20.703125 0.703125 C 8.015625 0.703125 1.671875 -5.726562 1.671875 -18.59375 L 1.75 -23.6875 L 17.109375 -23.6875 L 17.203125 -16.140625 C 17.203125 -14.617188 17.492188 -13.460938 18.078125 -12.671875 C 18.660156 -11.890625 19.625 -11.5 20.96875 -11.5 C 23.019531 -11.5 24.046875 -13.164062 24.046875 -16.5 C 24.046875 -18.945312 23.5625 -20.875 22.59375 -22.28125 C 21.625 -23.6875 20.085938 -25.179688 17.984375 -26.765625 L 9.828125 -33.078125 C 7.015625 -35.242188 4.992188 -37.476562 3.765625 -39.78125 C 2.546875 -42.09375 1.9375 -45.351562 1.9375 -49.5625 C 1.9375 -52.84375 2.796875 -55.640625 4.515625 -57.953125 C 6.242188 -60.265625 8.539062 -62.003906 11.40625 -63.171875 C 14.269531 -64.335938 17.457031 -64.921875 20.96875 -64.921875 C 33.425781 -64.921875 39.65625 -58.722656 39.65625 -46.328125 L 39.65625 -45.09375 L 23.78125 -45.09375 L 23.78125 -47.546875 C 23.78125 -49.066406 23.53125 -50.367188 23.03125 -51.453125 C 22.53125 -52.535156 21.695312 -53.078125 20.53125 -53.078125 C 19.476562 -53.078125 18.671875 -52.769531 18.109375 -52.15625 C 17.554688 -51.539062 17.28125 -50.707031 17.28125 -49.65625 C 17.28125 -47.3125 18.1875 -45.5 20 -44.21875 L 29.484375 -37.28125 C 32.867188 -34.769531 35.46875 -32.035156 37.28125 -29.078125 C 39.09375 -26.128906 40 -22.398438 40 -17.890625 C 40 -11.929688 38.300781 -7.34375 34.90625 -4.125 C 31.519531 -0.90625 26.785156 0.703125 20.703125 0.703125 Z M 20.703125 0.703125 "/></g></g></g><g fill="#38b6ff" fill-opacity="1"><g transform="translate(137.858613, 88.901736)"><g><path d="M 16.3125 0.703125 C 12.28125 0.703125 9.503906 -0.144531 7.984375 -1.84375 C 6.460938 -3.539062 5.703125 -6.257812 5.703125 -10 L 5.703125 -50.09375 L 1.40625 -50.09375 L 1.40625 -61.765625 L 5.703125 -61.765625 L 5.703125 -75.359375 L 20.625 -75.359375 L 20.625 -61.765625 L 25 -61.765625 L 25 -50.09375 L 20.625 -50.09375 L 20.625 -14.03125 C 20.625 -12.925781 20.707031 -12.109375 20.875 -11.578125 C 21.050781 -11.054688 21.519531 -10.796875 22.28125 -10.796875 C 22.863281 -10.796875 23.414062 -10.820312 23.9375 -10.875 C 24.46875 -10.9375 24.820312 -10.96875 25 -10.96875 L 25 -0.4375 C 24.125 -0.207031 22.851562 0.0351562 21.1875 0.296875 C 19.519531 0.566406 17.894531 0.703125 16.3125 0.703125 Z M 16.3125 0.703125 "/></g></g></g><g fill="#38b6ff" fill-opacity="1"><g transform="translate(164.614964, 88.901736)"><g><path d="M 14.734375 0.703125 C 9.765625 0.703125 6.359375 -0.945312 4.515625 -4.25 C 2.671875 -7.5625 1.75 -12.285156 1.75 -18.421875 C 1.75 -23.453125 2.40625 -27.3125 3.71875 -30 C 5.039062 -32.695312 6.867188 -34.671875 9.203125 -35.921875 C 11.546875 -37.179688 15.117188 -38.570312 19.921875 -40.09375 L 24.125 -41.5 L 24.125 -48.078125 C 24.125 -49.773438 23.785156 -51.078125 23.109375 -51.984375 C 22.441406 -52.890625 21.640625 -53.34375 20.703125 -53.34375 C 19.890625 -53.34375 19.175781 -52.960938 18.5625 -52.203125 C 17.945312 -51.441406 17.640625 -50.414062 17.640625 -49.125 L 17.640625 -45.265625 L 2.71875 -45.265625 L 2.71875 -47.375 C 2.71875 -53.695312 4.191406 -58.203125 7.140625 -60.890625 C 10.097656 -63.578125 14.910156 -64.921875 21.578125 -64.921875 C 26.898438 -64.921875 31.226562 -63.53125 34.5625 -60.75 C 37.894531 -57.976562 39.5625 -54.046875 39.5625 -48.953125 L 39.5625 0 L 24.296875 0 L 24.296875 -7.640625 C 23.535156 -5.003906 22.320312 -2.953125 20.65625 -1.484375 C 18.988281 -0.0234375 17.015625 0.703125 14.734375 0.703125 Z M 20.796875 -11.234375 C 21.960938 -11.234375 22.796875 -11.710938 23.296875 -12.671875 C 23.796875 -13.640625 24.046875 -14.828125 24.046875 -16.234375 L 24.046875 -34.125 C 21.765625 -33.25 20.082031 -32.140625 19 -30.796875 C 17.914062 -29.453125 17.375 -27.582031 17.375 -25.1875 L 17.375 -16.9375 C 17.375 -13.132812 18.515625 -11.234375 20.796875 -11.234375 Z M 20.796875 -11.234375 "/></g></g></g><g fill="#38b6ff" fill-opacity="1"><g transform="translate(206.986483, 88.901736)"><g><path d="M 11.234375 0 L 0.96875 -64.21875 L 16.3125 -64.21875 L 19.484375 -31.765625 L 20 -21.3125 L 20.625 -31.84375 L 24.125 -64.21875 L 39.484375 -64.21875 L 29.046875 0 Z M 11.234375 0 "/></g></g></g><g fill="#38b6ff" fill-opacity="1"><g transform="translate(247.428032, 88.901736)"><g><path d="M 21.765625 0.703125 C 8.953125 0.703125 2.546875 -5.9375 2.546875 -19.21875 L 2.546875 -45 C 2.546875 -51.082031 4.253906 -55.921875 7.671875 -59.515625 C 11.097656 -63.117188 15.796875 -64.921875 21.765625 -64.921875 C 27.722656 -64.921875 32.410156 -63.117188 35.828125 -59.515625 C 39.253906 -55.921875 40.96875 -51.082031 40.96875 -45 L 40.96875 -19.21875 C 40.96875 -5.9375 34.566406 0.703125 21.765625 0.703125 Z M 21.765625 -11.140625 C 22.984375 -11.140625 23.882812 -11.578125 24.46875 -12.453125 C 25.0625 -13.335938 25.359375 -14.539062 25.359375 -16.0625 L 25.359375 -47.46875 C 25.359375 -51.207031 24.160156 -53.078125 21.765625 -53.078125 C 19.359375 -53.078125 18.15625 -51.207031 18.15625 -47.46875 L 18.15625 -16.0625 C 18.15625 -14.539062 18.445312 -13.335938 19.03125 -12.453125 C 19.625 -11.578125 20.535156 -11.140625 21.765625 -11.140625 Z M 21.765625 -11.140625 "/></g></g></g><g fill="#38b6ff" fill-opacity="1"><g transform="translate(291.027719, 88.901736)"><g/></g></g><g fill="#38b6ff" fill-opacity="1"><g transform="translate(311.555528, 88.901736)"><g><path d="M 1.3125 0 L 8.59375 -75.359375 L 34.125 -75.359375 L 41.328125 0 L 27.015625 0 L 25.96875 -12.1875 L 16.84375 -12.1875 L 15.96875 0 Z M 17.984375 -24.21875 L 24.828125 -24.21875 L 21.5 -62.546875 L 20.796875 -62.546875 Z M 17.984375 -24.21875 "/></g></g></g><g fill="#38b6ff" fill-opacity="1"><g transform="translate(354.102483, 88.901736)"><g><path d="M 15.4375 0.703125 C 10.644531 0.703125 7.351562 -0.726562 5.5625 -3.59375 C 3.78125 -6.457031 2.890625 -10.726562 2.890625 -16.40625 L 2.890625 -64.21875 L 18.34375 -64.21875 L 18.34375 -19.484375 C 18.34375 -19.066406 18.34375 -17.96875 18.34375 -16.1875 C 18.34375 -14.40625 18.617188 -13.144531 19.171875 -12.40625 C 19.722656 -11.675781 20.585938 -11.3125 21.765625 -11.3125 C 23.335938 -11.3125 24.328125 -11.96875 24.734375 -13.28125 C 25.148438 -14.601562 25.359375 -16.492188 25.359375 -18.953125 L 25.359375 -19.484375 L 25.4375 -64.21875 L 40.703125 -64.21875 L 40.703125 0 L 25.359375 0 L 25.359375 -6.84375 C 24.304688 -4.15625 23.078125 -2.222656 21.671875 -1.046875 C 20.265625 0.117188 18.1875 0.703125 15.4375 0.703125 Z M 15.4375 0.703125 "/></g></g></g><g fill="#38b6ff" fill-opacity="1"><g transform="translate(397.877607, 88.901736)"><g><path d="M 20.359375 9.390625 C 15.796875 9.390625 12.210938 9.019531 9.609375 8.28125 C 7.003906 7.550781 4.445312 6.164062 1.9375 4.125 L 7.1875 -4.734375 C 10.9375 -2.515625 14.65625 -1.40625 18.34375 -1.40625 C 20.738281 -1.40625 22.550781 -2.164062 23.78125 -3.6875 C 25.007812 -5.207031 25.625 -7.28125 25.625 -9.90625 L 25.625 -13.421875 C 24.394531 -9.035156 21.144531 -6.84375 15.875 -6.84375 C 11.488281 -6.84375 8.257812 -8.332031 6.1875 -11.3125 C 4.113281 -14.300781 3.078125 -18.28125 3.078125 -23.25 L 3.078125 -47.375 C 3.078125 -53.050781 4.023438 -57.394531 5.921875 -60.40625 C 7.828125 -63.414062 11.144531 -64.921875 15.875 -64.921875 C 18.625 -64.921875 20.800781 -64.234375 22.40625 -62.859375 C 24.019531 -61.484375 25.09375 -59.539062 25.625 -57.03125 L 25.625 -64.21875 L 41.328125 -64.21875 L 41.328125 -10.875 C 41.328125 -3.6875 39.660156 1.484375 36.328125 4.640625 C 32.992188 7.804688 27.671875 9.390625 20.359375 9.390625 Z M 22.015625 -18.421875 C 24.421875 -18.421875 25.625 -20.585938 25.625 -24.921875 L 25.625 -47.8125 C 25.625 -49.101562 25.269531 -50.332031 24.5625 -51.5 C 23.863281 -52.664062 22.988281 -53.25 21.9375 -53.25 C 20.59375 -53.25 19.6875 -52.765625 19.21875 -51.796875 C 18.75 -50.835938 18.515625 -49.507812 18.515625 -47.8125 L 18.515625 -24.921875 C 18.515625 -22.984375 18.75 -21.414062 19.21875 -20.21875 C 19.6875 -19.019531 20.617188 -18.421875 22.015625 -18.421875 Z M 22.015625 -18.421875 "/></g></g></g><g fill="#38b6ff" fill-opacity="1"><g transform="translate(442.091363, 88.901736)"><g><path d="M 21.0625 0.703125 C 14.445312 0.703125 9.707031 -1.109375 6.84375 -4.734375 C 3.976562 -8.359375 2.546875 -13.769531 2.546875 -20.96875 L 2.546875 -46.765625 C 2.546875 -52.671875 4.238281 -57.171875 7.625 -60.265625 C 11.019531 -63.367188 15.757812 -64.921875 21.84375 -64.921875 C 34.1875 -64.921875 40.359375 -58.867188 40.359375 -46.765625 L 40.359375 -42.109375 C 40.359375 -37.429688 40.300781 -33.628906 40.1875 -30.703125 L 17.890625 -30.703125 L 17.890625 -18.25 C 17.890625 -16.03125 18.125 -14.289062 18.59375 -13.03125 C 19.0625 -11.769531 20.054688 -11.140625 21.578125 -11.140625 C 22.753906 -11.140625 23.585938 -11.488281 24.078125 -12.1875 C 24.578125 -12.894531 24.867188 -13.703125 24.953125 -14.609375 C 25.046875 -15.515625 25.09375 -16.84375 25.09375 -18.59375 L 25.09375 -24.828125 L 40.359375 -24.828125 L 40.359375 -21.140625 C 40.359375 -13.648438 38.910156 -8.132812 36.015625 -4.59375 C 33.117188 -1.0625 28.132812 0.703125 21.0625 0.703125 Z M 25.09375 -38.34375 L 25.09375 -46.59375 C 25.09375 -51.207031 23.953125 -53.515625 21.671875 -53.515625 C 19.097656 -53.515625 17.8125 -51.207031 17.8125 -46.59375 L 17.8125 -38.34375 Z M 25.09375 -38.34375 "/></g></g></g><g fill="#38b6ff" fill-opacity="1"><g transform="translate(484.901541, 88.901736)"><g><path d="M 3.078125 -64.21875 L 18.421875 -64.21875 L 18.421875 -57.109375 C 19.179688 -59.628906 20.507812 -61.578125 22.40625 -62.953125 C 24.3125 -64.328125 26.671875 -65.015625 29.484375 -65.015625 L 29.484375 -52.203125 C 27.316406 -52.203125 24.929688 -51.894531 22.328125 -51.28125 C 19.722656 -50.664062 18.421875 -49.945312 18.421875 -49.125 L 18.421875 0 L 3.078125 0 Z M 3.078125 -64.21875 "/></g></g></g></svg>